<?xml version="1.0" encoding="UTF-8" standalone="no"?>
<!DOCTYPE svg PUBLIC "-//W3C//DTD SVG 1.1//EN" "http://www.w3.org/Graphics/SVG/1.1/DTD/svg11.dtd">
<svg xmlns="http://www.w3.org/2000/svg" version="1.1" xmlns:xlink="http://www.w3.org/1999/xlink" viewBox="0 0 512 288">

<!-- Copyright 2015-2022 Isaac Gouy -->

<!-- Box plot chart showing benchmark program performance grouped by implementation language -->

<!-- The Computer Language Benchmarks Game -->
<!-- https://benchmarksgame-team.pages.debian.net/benchmarksgame/license.html -->

<g style="stroke: #ccc;" >
<line x1="51" y1="264" x2="461" y2="264" />
<line x1="51" y1="221.57" x2="461" y2="221.57" />
<line x1="51" y1="201.85" x2="461" y2="201.85" />
<line x1="51" y1="175.08" x2="461" y2="175.08" />
<line x1="51" y1="132.65" x2="461" y2="132.65" />
<line x1="51" y1="112.92" x2="461" y2="112.92" />
<line x1="51" y1="86.15" x2="461" y2="86.15" />
<line x1="51" y1="43.73" x2="461" y2="43.73" />
<line x1="51" y1="24" x2="461" y2="24" />
</g>
<g style="text-anchor: end; font-family: Ubuntu,Verdana,sans-serif; font-size: 0.9em;" >
<text x="51" y="262" >1</text>
<text x="51" y="219.57" >3</text>
<text x="51" y="199.85" >5</text>
<text x="51" y="173.08" >10</text>
<text x="51" y="130.65" >30</text>
<text x="51" y="110.92" >50</text>
<text x="51" y="84.15" >100</text>
<text x="51" y="41.73" >300</text>
<text x="51" y="22" ></text>
</g>
<defs>
<linearGradient id="grade" x1="0" y1="0" x2="0" y2="1">
<stop offset="0" style="stop-color: white" stop-opacity="0.6"/>
<stop offset="1" style="stop-color: white" stop-opacity="0.8"/>
</linearGradient>
<mask id="fade">
<rect x="58" y="24" width="452" height="288" fill="url(#grade)"  />
</mask>
<g id="backgroundText" style="text-anchor: end; font-family: Ubuntu,Verdana,sans-serif; font-size: 1em;">
<text x="16" y="0" transform="rotate(270,16,0)" xml:space="preserve">   Go   Go   Go   Go   Go   Go   Go   Go   Go   Go</text>
<text x="43" y="0" transform="rotate(270,43,0)" xml:space="preserve">   Ada 2012 GNAT   Ada 2012 GNAT   Ada 2012 GNAT</text>
<text x="70" y="0" transform="rotate(270,70,0)" xml:space="preserve">   Lisp SBCL   Lisp SBCL   Lisp SBCL</text>
<text x="97" y="0" transform="rotate(270,97,0)" xml:space="preserve">   Node.js   Node.js   Node.js   Node.js</text>
<text x="124" y="0" transform="rotate(270,124,0)" xml:space="preserve">   Free Pascal   Free Pascal   Free Pascal</text>
<text x="151" y="0" transform="rotate(270,151,0)" xml:space="preserve">   Dart aot   Dart aot   Dart aot   Dart aot</text>
<text x="178" y="0" transform="rotate(270,178,0)" xml:space="preserve">   OCaml   OCaml   OCaml   OCaml   OCaml</text>
<text x="205" y="0" transform="rotate(270,205,0)" xml:space="preserve">   Racket   Racket   Racket   Racket   Racket</text>
<text x="232" y="0" transform="rotate(270,232,0)" xml:space="preserve">   PHP   PHP   PHP   PHP   PHP   PHP   PHP   PHP</text>
<text x="259" y="0" transform="rotate(270,259,0)" xml:space="preserve">   Erlang   Erlang   Erlang   Erlang   Erlang</text>
<text x="286" y="0" transform="rotate(270,286,0)" xml:space="preserve">   Ruby   Ruby   Ruby   Ruby   Ruby   Ruby</text>
<text x="313" y="0" transform="rotate(270,313,0)" xml:space="preserve">   Perl   Perl   Perl   Perl   Perl   Perl</text>
<text x="340" y="0" transform="rotate(270,340,0)" xml:space="preserve">   Lua   Lua   Lua   Lua   Lua   Lua   Lua   Lua</text>
<text x="367" y="0" transform="rotate(270,367,0)" xml:space="preserve">   Python 3   Python 3   Python 3   Python 3</text>
<text x="394" y="0" transform="rotate(270,394,0)" xml:space="preserve">   Pharo Smalltalk   Pharo Smalltalk</text>
</g>
</defs>
<use x="60" y="27" xlink:href="#backgroundText"/>
<rect x="58" y="24" width="452" height="288" fill="white" mask="url(#fade)" />
<rect x="58" y="264" width="452" height="288" style="fill: white; stroke: white;" />
<g style="fill: black; stroke: black;">
<rect x="72" y="206.98" width="1" height="27.55" />
<rect x="99" y="192.61" width="1" height="46.24" />
<rect x="126" y="188.49" width="1" height="25.45" />
<rect x="153" y="173.81" width="1" height="44.26" />
<rect x="180" y="180.45" width="1" height="41.09" />
<rect x="207" y="172.81" width="1" height="45.91" />
<rect x="234" y="164.23" width="1" height="53.57" />
<rect x="261" y="134.82" width="1" height="55.01" />
<rect x="288" y="87.27" width="1" height="78.4" />
<rect x="315" y="-49.39" width="1" height="189.19" />
<rect x="342" y="67.94" width="1" height="95.11" />
<rect x="369" y="26.97" width="1" height="137.43" />
<rect x="396" y="46" width="1" height="85.35" />
<rect x="423" y="54.97" width="1" height="122.14" />
<rect x="450" y="34.05" width="1" height="75.47" />
</g>
<g style="fill: white; stroke: black;">
<rect x="62" y="209.81" width="22" height="8.1" />
<rect x="89" y="206.92" width="22" height="13.72" />
<rect x="116" y="199.96" width="22" height="10.12" />
<rect x="143" y="191.44" width="22" height="18.82" />
<rect x="170" y="187.67" width="22" height="26.72" />
<rect x="197" y="192.06" width="22" height="21.76" />
<rect x="224" y="182.46" width="22" height="25.81" />
<rect x="251" y="153.54" width="22" height="20.75" />
<rect x="278" y="100.57" width="22" height="32.85" />
<rect x="305" y="-14.5" width="22" height="148.51" />
<rect x="332" y="82.55" width="22" height="35.64" />
<rect x="359" y="57.7" width="22" height="64.29" />
<rect x="386" y="62.33" width="22" height="39.63" />
<rect x="413" y="61.15" width="22" height="72.17" />
<rect x="440" y="44.4" width="22" height="44.15" />
</g>
<g style="fill: black; stroke: black;">
<line x1="68.5" y1="234.53" x2="78" y2="234.53" />
<line x1="68.5" y1="206.98" x2="78" y2="206.98" />
<line x1="68.5" y1="244.98" x2="78" y2="244.98" />
<rect x="72" y="239.98" width="1" height="5" />
</g>
<g style="fill: black; stroke: black;">
<rect x="63" y="211.95" width="20" height="1" />
</g>
<g style="fill: black; stroke: black;">
<line x1="95.5" y1="238.85" x2="105" y2="238.85" />
<line x1="95.5" y1="192.61" x2="105" y2="192.61" />
<line x1="95.5" y1="189.62" x2="105" y2="189.62" />
<rect x="99" y="189.62" width="1" height="5" />
</g>
<g style="fill: black; stroke: black;">
<rect x="90" y="210.71" width="20" height="1" />
</g>
<g style="fill: black; stroke: black;">
<line x1="122.5" y1="213.95" x2="132" y2="213.95" />
<line x1="122.5" y1="188.49" x2="132" y2="188.49" />
<line x1="122.5" y1="166.42" x2="132" y2="166.42" />
<rect x="126" y="166.42" width="1" height="5" />
</g>
<g style="fill: black; stroke: black;">
<rect x="117" y="205.74" width="20" height="1" />
</g>
<g style="fill: black; stroke: black;">
<line x1="149.5" y1="218.06" x2="159" y2="218.06" />
<line x1="149.5" y1="173.81" x2="159" y2="173.81" />
<line x1="149.5" y1="126.38" x2="159" y2="126.38" />
<rect x="153" y="126.38" width="1" height="5" />
</g>
<g style="fill: black; stroke: black;">
<rect x="144" y="204.64" width="20" height="1" />
</g>
<g style="fill: black; stroke: black;">
<line x1="176.5" y1="221.54" x2="186" y2="221.54" />
<line x1="176.5" y1="180.45" x2="186" y2="180.45" />
</g>
<g style="fill: black; stroke: black;">
<rect x="171" y="203.37" width="20" height="1" />
</g>
<g style="fill: black; stroke: black;">
<line x1="203.5" y1="218.72" x2="213" y2="218.72" />
<line x1="203.5" y1="172.81" x2="213" y2="172.81" />
<line x1="203.5" y1="149.42" x2="213" y2="149.42" />
<rect x="207" y="149.42" width="1" height="5" />
</g>
<g style="fill: black; stroke: black;">
<rect x="198" y="202.35" width="20" height="1" />
</g>
<g style="fill: black; stroke: black;">
<line x1="230.5" y1="217.8" x2="240" y2="217.8" />
<line x1="230.5" y1="164.23" x2="240" y2="164.23" />
</g>
<g style="fill: black; stroke: black;">
<rect x="225" y="199.62" width="20" height="1" />
</g>
<g style="fill: black; stroke: black;">
<line x1="257.5" y1="189.84" x2="267" y2="189.84" />
<line x1="257.5" y1="134.82" x2="267" y2="134.82" />
<line x1="257.5" y1="131.85" x2="267" y2="131.85" />
<rect x="261" y="131.85" width="1" height="5" />
</g>
<g style="fill: black; stroke: black;">
<rect x="252" y="167.16" width="20" height="1" />
</g>
<g style="fill: black; stroke: black;">
<line x1="284.5" y1="165.67" x2="294" y2="165.67" />
<line x1="284.5" y1="87.27" x2="294" y2="87.27" />
</g>
<g style="fill: black; stroke: black;">
<rect x="279" y="115.67" width="20" height="1" />
</g>
<g style="fill: black; stroke: black;">
<line x1="311.5" y1="139.8" x2="321" y2="139.8" />
<line x1="311.5" y1="-49.39" x2="321" y2="-49.39" />
<line x1="311.5" y1="-56.78" x2="321" y2="-56.78" />
<rect x="315" y="-56.78" width="1" height="5" />
</g>
<g style="fill: black; stroke: black;">
<rect x="306" y="112.38" width="20" height="1" />
</g>
<g style="fill: black; stroke: black;">
<line x1="338.5" y1="163.04" x2="348" y2="163.04" />
<line x1="338.5" y1="67.94" x2="348" y2="67.94" />
</g>
<g style="fill: black; stroke: black;">
<rect x="333" y="97.73" width="20" height="1" />
</g>
<g style="fill: black; stroke: black;">
<line x1="365.5" y1="164.4" x2="375" y2="164.4" />
<line x1="365.5" y1="26.97" x2="375" y2="26.97" />
<line x1="365.5" y1="20.05" x2="375" y2="20.05" />
<rect x="369" y="20.05" width="1" height="5" />
</g>
<g style="fill: black; stroke: black;">
<rect x="360" y="95.43" width="20" height="1" />
</g>
<g style="fill: black; stroke: black;">
<line x1="392.5" y1="131.34" x2="402" y2="131.34" />
<line x1="392.5" y1="46" x2="402" y2="46" />
</g>
<g style="fill: black; stroke: black;">
<rect x="387" y="84.05" width="20" height="1" />
</g>
<g style="fill: black; stroke: black;">
<line x1="419.5" y1="177.1" x2="429" y2="177.1" />
<line x1="419.5" y1="54.97" x2="429" y2="54.97" />
</g>
<g style="fill: black; stroke: black;">
<rect x="414" y="70.64" width="20" height="1" />
</g>
<g style="fill: black; stroke: black;">
<line x1="446.5" y1="109.51" x2="456" y2="109.51" />
<line x1="446.5" y1="34.05" x2="456" y2="34.05" />
</g>
<g style="fill: black; stroke: black;">
<rect x="441" y="53.8" width="20" height="1" />
</g>
<g style="text-anchor: end; font-family: Ubuntu,Verdana,sans-serif; font-size: 0.9em;" >
<text x="462" y="282" >05 Mar 2025 u64q</text>
<text x="58" y="282" style="text-anchor: start;" >benchmarks game 7</text>
</g>
<text x="16" y="144" transform="rotate(270,16,144)" style="text-anchor: middle; font-family: Ubuntu,Verdana,sans-serif; font-size: 0.9em;" >program elapsed seconds / fastest</text>
<rect x="58" y="0" width="452" height="23" style="fill: white; stroke: white;" />
<text x="259.5" y="18" style="text-anchor: middle; font-family: Ubuntu,Verdana,sans-serif; font-size: 1.2em;" >How many times slower? (Percentiles)</text>
<g style="stroke: #333;">
<line x1="58" y1="24" x2="58" y2="264" />
<line x1="461" y1="24" x2="461" y2="264" />
<line x1="58" y1="264" x2="461" y2="264" />
</g>
</svg>

